<svg width="16" height="16" viewBox="0 0 16 16" fill="none" xmlns="http://www.w3.org/2000/svg">
<g clip-path="url(#clip0_236_2596)">
<path fill-rule="evenodd" clip-rule="evenodd" d="M8 2.5C4.96243 2.5 2.5 4.96243 2.5 8C2.5 11.0376 4.96243 13.5 8 13.5C11.0376 13.5 13.5 11.0376 13.5 8C13.5 4.96243 11.0376 2.5 8 2.5ZM1.5 8C1.5 4.41015 4.41015 1.5 8 1.5C11.5899 1.5 14.5 4.41015 14.5 8C14.5 11.5899 11.5899 14.5 8 14.5C4.41015 14.5 1.5 11.5899 1.5 8ZM8 5.1C8.27614 5.1 8.5 5.32386 8.5 5.6V8C8.5 8.27614 8.27614 8.5 8 8.5C7.72386 8.5 7.5 8.27614 7.5 8V5.6C7.5 5.32386 7.72386 5.1 8 5.1ZM7.5 10.4C7.5 10.1239 7.72386 9.9 8 9.9H8.006C8.28214 9.9 8.506 10.1239 8.506 10.4C8.506 10.6761 8.28214 10.9 8.006 10.9H8C7.72386 10.9 7.5 10.6761 7.5 10.4Z" fill="#F0483D"/>
</g>
<defs>
<clipPath id="clip0_236_2596">
<rect width="16" height="16" fill="white"/>
</clipPath>
</defs>
</svg>
