<svg width="24" height="25" viewBox="0 0 24 25" fill="none" xmlns="http://www.w3.org/2000/svg">
<path fill-rule="evenodd" clip-rule="evenodd" d="M8 4.94586C7.13805 4.94586 6.3114 5.28827 5.7019 5.89776C5.09241 6.50726 4.75 7.33391 4.75 8.19586V16.1959C4.75 17.0578 5.09241 17.8845 5.7019 18.494C6.3114 19.1035 7.13805 19.4459 8 19.4459H16C16.862 19.4459 17.6886 19.1035 18.2981 18.494C18.9076 17.8845 19.25 17.0578 19.25 16.1959V8.19586C19.25 7.33391 18.9076 6.50726 18.2981 5.89776C17.6886 5.28827 16.862 4.94586 16 4.94586H8ZM4.64124 4.8371C5.53204 3.94631 6.74022 3.44586 8 3.44586H16C17.2598 3.44586 18.468 3.94631 19.3588 4.8371C20.2496 5.7279 20.75 6.93608 20.75 8.19586V16.1959C20.75 17.4556 20.2496 18.6638 19.3588 19.5546C18.468 20.4454 17.2598 20.9459 16 20.9459H8C6.74022 20.9459 5.53204 20.4454 4.64124 19.5546C3.75044 18.6638 3.25 17.4556 3.25 16.1959V8.19586C3.25 6.93608 3.75044 5.7279 4.64124 4.8371ZM16.5 6.94586C16.9142 6.94586 17.25 7.28165 17.25 7.69586V7.70586C17.25 8.12008 16.9142 8.45586 16.5 8.45586C16.0858 8.45586 15.75 8.12008 15.75 7.70586V7.69586C15.75 7.28165 16.0858 6.94586 16.5 6.94586ZM9.34835 9.54421C10.0516 8.84095 11.0054 8.44586 12 8.44586C12.9946 8.44586 13.9484 8.84095 14.6517 9.54421C15.3549 10.2475 15.75 11.2013 15.75 12.1959C15.75 13.1904 15.3549 14.1443 14.6517 14.8475C13.9484 15.5508 12.9946 15.9459 12 15.9459C11.0054 15.9459 10.0516 15.5508 9.34835 14.8475C8.64509 14.1443 8.25 13.1904 8.25 12.1959C8.25 11.2013 8.64509 10.2475 9.34835 9.54421ZM12 9.94586C11.4033 9.94586 10.831 10.1829 10.409 10.6049C9.98705 11.0268 9.75 11.5991 9.75 12.1959C9.75 12.7926 9.98705 13.3649 10.409 13.7869C10.831 14.2088 11.4033 14.4459 12 14.4459C12.5967 14.4459 13.169 14.2088 13.591 13.7869C14.0129 13.3649 14.25 12.7926 14.25 12.1959C14.25 11.5991 14.0129 11.0268 13.591 10.6049C13.169 10.1829 12.5967 9.94586 12 9.94586Z" fill="#353535"/>
</svg>
