<svg style="display: none;">
    <symbol id="logo" width="188" height="44" viewBox="0 0 188 44" fill="none" xmlns="http://www.w3.org/2000/svg">
        <g clip-path="url(#clip0_236_774)">
        <path d="M20.4847 3.57164C19.7784 5.28283 18.5989 6.43632 17.9468 6.22733C17.2901 6.01719 17.3709 4.42492 18.0772 2.71604C18.7835 1.00716 19.9608 -0.14865 20.6163 0.0614962C21.2707 0.270488 21.1911 1.86044 20.4847 3.57048" fill="#070B0B"/>
        <path d="M20.052 3.47578C19.4588 4.84635 18.6163 5.77584 18.1062 5.61997C17.5995 5.46409 17.7057 4.20205 18.3047 2.89614C18.9037 1.59023 19.7404 0.596079 20.2494 0.751957C20.7584 0.907835 20.6453 2.10521 20.052 3.47578Z" fill="#EA5B0C"/>
        <path d="M34.9357 41.0228C34.8965 40.8704 34.7557 40.7711 34.5987 40.7792C33.7689 40.8185 32.8917 40.7515 32.07 40.5771C32.0515 40.5737 32.0342 40.5679 32.0157 40.561C31.022 40.1753 28.5649 39.7435 26.3581 33.5026C24.8404 29.1507 22.4433 27.7316 21.5789 27.473C21.4023 27.4199 21.3111 27.2328 21.3619 27.0562C21.7993 25.5239 21.6954 23.8462 21.0479 22.336C20.3508 20.843 19.0986 19.8061 18.7501 19.0925C18.4027 18.3778 18.0426 18.006 18.3323 16.6909C18.7039 15.0397 22.8646 7.74232 21.7381 5.51384C19.6214 1.30399 6.42847 6.50223 7.83767 10.1209C8.75637 12.6207 16.87 10.2514 16.87 10.2514C16.4533 12.0549 15.4965 13.6691 14.13 14.9081L14.1185 14.9046C14.0758 14.945 14.0342 14.9854 13.9915 15.0259C13.7422 15.2025 13.4895 15.3769 13.2333 15.5466L13.2483 15.5501C12.2742 16.2013 10.1159 17.2128 10.1079 17.2162C7.74419 18.3824 5.01811 20.0116 3.62968 23.2504C3.14264 24.4836 2.93374 25.7826 3.14264 27.0804C3.49003 29.4151 4.55184 31.2279 6.70892 32.5257C7.3714 32.9553 8.09505 33.3282 8.82215 33.6435C8.89602 33.6758 8.95488 33.7347 8.98835 33.8086C9.67968 35.3316 10.9908 36.5543 12.6839 37.0866C12.7889 37.119 12.8697 37.1986 12.9032 37.3037C13.0971 37.9099 12.9771 40.0171 8.29125 40.3751C6.52426 40.5102 5.2651 39.9767 4.34756 39.6684C3.93091 39.5287 3.47734 39.561 3.08493 39.7573C1.70112 40.4467 0.709711 41.7006 0.1211 42.6336C-0.203213 43.1474 0.161495 43.6381 0.768572 43.6381L20.0069 43.9637C21.1357 43.9637 21.8397 42.6463 19.6757 41.6117C18.7628 41.1752 15.9663 39.7285 15.8959 36.7425C15.8266 35.91 16.0978 35.0764 16.6414 34.3663C16.6541 34.3489 16.6691 34.3328 16.6841 34.3178C17.4505 33.558 18.6208 33.3075 19.723 33.6931C20.7663 34.0834 21.6712 34.73 22.3671 35.5094C24.8739 38.4941 27.4477 44.0099 31.9026 43.7513C35.1273 43.4926 35.1088 41.7006 34.9357 41.024V41.0228Z" fill="black"/>
        <path d="M33.8347 41.8737C33.208 41.1301 31.5991 41.1555 30.625 40.7653C29.6498 40.375 28.049 38.9467 25.8227 33.4321C23.736 28.175 20.8114 27.8493 20.8114 27.8493C21.0895 26.0989 20.951 24.218 20.2551 22.5299C19.6284 21.1016 18.4466 19.9331 16.9854 19.2841L18.8644 19.9977C18.0299 19.156 17.6814 18.0521 17.8903 16.9494C17.9064 16.7993 18.0138 16.4656 18.3866 15.5119C18.7593 14.5582 22.2437 7.72608 21.3608 5.82206C19.5972 1.87547 7.39222 7.26884 8.51982 9.83563C9.57816 12.138 17.7622 9.83563 17.7622 9.83563C17.7622 9.83563 17.1978 13.0594 15.0107 14.9657C14.9472 15.02 13.68 16.0927 11.9038 16.9483C9.67742 18.051 6.25078 19.6802 4.37184 23.0541C2.70065 26.1024 3.48316 29.4612 5.6414 31.2117C6.47584 31.8629 7.65998 32.4564 8.63408 32.9771C8.56483 32.7162 8.56483 32.3929 8.56483 32.1331V31.7428C8.56483 31.5477 8.63408 31.289 8.63408 31.0939V31.1597C8.70333 30.7036 8.84298 30.2499 8.98147 29.8619C8.70333 31.4842 9.12112 33.1053 10.0248 34.4678C10.79 35.507 11.9211 36.3672 13.1064 36.8856C13.1064 36.8856 13.7654 37.9745 12.7197 39.2365C11.9638 40.1487 11.4086 40.6244 8.34093 40.8923C6.7009 41.0355 6.18961 40.9223 4.21603 40.2942C3.97136 40.2168 3.38159 40.2284 3.1473 40.3323C2.15359 40.7745 1.38839 41.5273 0.920968 42.4615C0.834408 42.6335 0.957901 42.8379 1.14949 42.8379C1.14949 42.8379 19.8742 43.1635 20.0093 43.1635C20.2574 43.1635 21.5073 43.1369 18.7709 41.5643C16.5619 40.2872 15.5208 38.3601 15.4516 36.4792C15.4516 34.5336 16.1475 33.4944 17.2601 32.9102C18.165 32.5211 19.139 32.5211 20.0427 32.9102C24.4273 35.1167 25.5641 42.8621 32.2224 43.6196C33.7112 43.7893 34.3506 42.488 33.8324 41.8726L33.8347 41.8737Z" fill="#EA5B0C"/>
        <path d="M16.376 6.30352C16.376 5.84281 16.7995 5.51489 17.222 5.51489C17.7159 5.51489 18.0679 5.84281 18.0679 6.30352C18.0679 6.76423 17.7148 7.09215 17.222 7.09215C16.7291 7.09215 16.376 6.76423 16.376 6.30352Z" fill="#070B0B"/>
        <path d="M10.0039 24.964C5.54891 23.9918 4.21011 22.9584 4.21011 22.9584L4.35207 22.7413C4.35207 22.7413 3.45069 22.119 3.16677 22.4388C2.79398 22.8579 0.872342 26.3923 3.12984 29.4799C4.17087 30.9047 6.03711 31.8423 7.98761 31.7765C7.98761 31.7765 7.18548 29.8863 7.71408 28.0666C8.03954 26.9454 8.9617 25.8716 10.005 24.9629" fill="#1D1D1B"/>
        <path d="M15.0383 25.5077C15.0383 25.5077 17.4839 19.1156 15.0983 18.8858C12.8351 18.6953 13.0624 24.3669 13.0624 24.3669C13.0093 23.8624 11.9175 17.7612 15.096 18.2704C18.428 18.8027 15.0383 25.5089 15.0383 25.5089" fill="#1D1D1B"/>
        <path d="M7.48801 31.0986C7.48801 31.0986 3.42775 31.2118 2.47789 26.9026C2.07856 25.091 2.85645 23.5149 3.11382 23.0265C3.16461 22.9295 3.28694 22.8983 3.37812 22.9583C3.9575 23.3371 6.36965 24.5275 9.52853 25.0864C9.52853 25.0864 7.89888 25.9558 7.35067 27.6647C6.80476 29.3678 7.48686 31.0975 7.48686 31.0975L7.48801 31.0986Z" fill="#FFE9C0"/>
        <path d="M31.7191 43.7651C34.5372 43.7651 36.8216 41.4796 36.8216 38.6604C36.8216 35.8411 34.5372 33.5557 31.7191 33.5557C28.9011 33.5557 26.6167 35.8411 26.6167 38.6604C26.6167 41.4796 28.9011 43.7651 31.7191 43.7651Z" fill="#1D1D1B"/>
        <path d="M31.7191 41.6913C33.3923 41.6913 34.7487 40.3343 34.7487 38.6604C34.7487 36.9864 33.3923 35.6294 31.7191 35.6294C30.0459 35.6294 28.6895 36.9864 28.6895 38.6604C28.6895 40.3343 30.0459 41.6913 31.7191 41.6913Z" fill="#EA5B0C"/>
        <path d="M30.5349 37.1328H31.7975C32.0999 37.1328 32.3458 37.2229 32.5339 37.4042C32.722 37.5854 32.8155 37.821 32.8155 38.112C32.8155 38.2921 32.7693 38.4607 32.6781 38.6165C32.587 38.7724 32.43 38.8867 32.2084 38.9595L32.894 40.218H32.235L31.6279 39.0726H31.1085V40.218H30.5361V37.1328H30.5349ZM31.1074 37.6305V38.5923H31.5529C32.0041 38.5923 32.2303 38.4306 32.2303 38.1073C32.2303 37.784 32.0307 37.6316 31.6325 37.6316H31.1085L31.1074 37.6305Z" fill="#1D1D1B"/>
        <path d="M14.2675 26.2051C12.9644 26.4822 10.7173 25.2444 11.1905 25.1324C11.1905 25.1324 9.40507 25.0135 8.0755 25.4742C7.42457 25.6994 6.8902 26.1439 6.71477 26.6531C6.47818 27.317 6.72401 28.1253 7.51575 28.4151C8.30749 28.7049 8.94919 28.3539 9.42816 27.9163C9.8021 27.5745 10.1218 27.3101 10.6562 27.1438C11.9592 26.9776 13.2022 26.6473 14.2686 26.2051" fill="#EA5B0C"/>
        <path d="M14.5905 26.4095C13.1074 26.7155 11.824 26.6532 10.2717 26.7767C8.85554 27.4476 8.31656 28.4255 7.40363 27.9417C6.17794 27.2928 6.92928 26.0689 8.12151 25.6093C9.19024 25.1983 10.8741 25.0239 11.4131 24.9015C11.4131 24.9015 9.37952 24.7711 7.86644 25.278C7.12549 25.5262 6.51725 26.0169 6.31759 26.5781C6.04752 27.3101 6.32797 28.2015 7.22936 28.5214C8.13074 28.8412 8.86131 28.4544 9.40606 27.9718C9.83194 27.5953 10.1955 27.3032 10.8037 27.1196C12.2868 26.9372 13.3763 26.8979 14.5905 26.4095Z" fill="#1D1D1B"/>
        <path d="M22.8669 4.3951C21.8789 6.1721 20.539 7.35562 19.7634 7.0277C18.9878 6.69747 19.199 4.92277 20.1166 3.14461C21.0341 1.36991 22.4445 0.186392 23.2201 0.514313C23.9956 0.909204 23.8548 2.61924 22.8669 4.39625" fill="#070B0B"/>
        <path d="M22.7262 4.00116C21.9506 5.51491 20.8218 6.50098 20.2575 6.30354C19.6919 6.10609 19.9043 4.65931 20.681 3.14557C21.4566 1.63297 22.5854 0.645746 23.1497 0.843191C23.7141 1.04064 23.5029 2.55323 22.7262 4.00116Z" fill="#EA5B0C"/>
        <path d="M38.8657 27.6912L23.1244 25.4558C23.0817 25.8265 23.0113 26.1936 22.9097 26.5527C22.882 26.6486 22.9005 26.7467 22.9478 26.8252L38.8657 27.6912Z" fill="#1D1D1B"/>
        <path d="M34.2896 24.0957L22.717 22.1836C22.8902 22.6466 23.0194 23.1223 23.0921 23.6038L34.2896 24.0957Z" fill="#1D1D1B"/>
        <path d="M20.3175 18.6516C20.4837 18.9934 20.8599 19.4102 21.2823 19.9171L36.697 21.1803L20.2217 18.4333C20.2517 18.5072 20.2828 18.58 20.3175 18.6516Z" fill="#1D1D1B"/>
        <path d="M44.6433 23.7217L48.31 21.6179C49.0867 23.5993 50.6091 24.8786 53.3132 24.8786C56.0173 24.8786 56.7941 23.8117 56.7941 22.6236C56.7941 21.0382 55.3341 20.4286 52.1014 19.5141C48.7763 18.5696 45.5447 17.1979 45.5447 13.1439C45.5447 9.08992 48.9633 6.80371 52.6923 6.80371C56.4213 6.80371 59.0008 8.60266 60.4608 11.5886L56.8564 13.6312C56.0797 12.0158 54.899 10.8877 52.6923 10.8877C50.8895 10.8877 49.8335 11.8022 49.8335 13.0215C49.8335 14.332 50.6725 15.0329 53.9664 16.0086C57.415 17.0755 61.0829 18.2036 61.0829 22.5612C61.0829 26.554 57.8201 28.9926 53.1897 28.9926C48.5593 28.9926 45.8251 26.89 44.6445 23.7193L44.6433 23.7217Z" fill="#353535"/>
        <path d="M64.1287 17.9C64.1287 11.6522 69.1319 6.80493 75.4081 6.80493C81.6843 6.80493 86.7198 11.651 86.7198 17.9C86.7198 24.1489 81.6854 28.995 75.4081 28.995C69.1307 28.995 64.1287 24.1178 64.1287 17.9ZM82.4321 17.9C82.4321 13.7848 79.3552 10.8901 75.4092 10.8901C71.4632 10.8901 68.3863 13.786 68.3863 17.9C68.3863 22.014 71.4621 24.8798 75.4092 24.8798C79.3564 24.8798 82.4321 21.984 82.4321 17.9Z" fill="#353535"/>
        <path d="M104.279 11.255H98.4054V28.5678H94.1167V11.255H88.2744V7.23218H104.278V11.255H104.279Z" fill="#353535"/>
        <path d="M115.622 21.1619H112.359V28.5678H108.07V7.23218H116.771C120.779 7.23218 124.011 10.4017 124.011 14.3033C124.011 16.9855 122.302 19.393 119.816 20.5211L124.632 28.5678H120.002L115.62 21.1619H115.622ZM112.359 17.4739H116.771C118.387 17.4739 119.723 16.0722 119.723 14.3044C119.723 12.5366 118.387 11.1649 116.771 11.1649H112.359V17.4739Z" fill="#353535"/>
        <path d="M141.229 24.7274H132.559L131.253 28.5678H126.623L134.236 7.23218H139.549L147.193 28.5678H142.532L141.226 24.7274H141.229ZM139.892 20.7959L136.909 12.0782L133.925 20.7959H139.891H139.892Z" fill="#353535"/>
        <path d="M167.582 7.23218V28.5678H164.319L154.998 15.5226V28.5678H150.709V7.23218H153.971L163.293 20.2462V7.23218H167.582Z" fill="#353535"/>
        <path d="M171.562 23.7217L175.228 21.6179C176.005 23.5993 177.528 24.8786 180.232 24.8786C182.936 24.8786 183.713 23.8117 183.713 22.6236C183.713 21.0382 182.253 20.4286 179.02 19.5141C175.695 18.5696 172.463 17.1979 172.463 13.1439C172.463 9.08992 175.882 6.80371 179.611 6.80371C183.34 6.80371 185.919 8.60266 187.379 11.5886L183.775 13.6312C182.998 12.0158 181.817 10.8877 179.611 10.8877C177.808 10.8877 176.752 11.8022 176.752 13.0215C176.752 14.332 177.591 15.0329 180.885 16.0086C184.333 17.0755 188.001 18.2036 188.001 22.5612C188.001 26.554 184.739 28.9926 180.108 28.9926C175.478 28.9926 172.744 26.89 171.563 23.7193L171.562 23.7217Z" fill="#353535"/>
        <path d="M45.8574 39.1351C45.8574 36.5533 47.8183 34.4634 50.5917 34.4634C52.2687 34.4634 53.7529 35.3409 54.5008 36.6838L53.701 37.1479C53.1458 36.0637 51.9467 35.3409 50.5917 35.3409C48.3088 35.3409 46.76 37.0313 46.76 39.1351C46.76 41.2389 48.3077 42.9293 50.5917 42.9293C51.9467 42.9293 53.1458 42.2065 53.701 41.1223L54.5008 41.5737C53.7656 42.9154 52.2814 43.8068 50.5917 43.8068C47.8183 43.8068 45.8574 41.7157 45.8574 39.1351Z" fill="#353535"/>
        <path d="M60.6292 39.1351C60.6292 36.5533 62.6674 34.4634 65.2988 34.4634C67.9302 34.4634 69.9684 36.5545 69.9684 39.1351C69.9684 41.7157 67.9302 43.8068 65.2988 43.8068C62.6674 43.8068 60.6292 41.7157 60.6292 39.1351ZM69.0659 39.1351C69.0659 37.0313 67.4409 35.3409 65.2988 35.3409C63.1567 35.3409 61.5317 37.0313 61.5317 39.1351C61.5317 41.2389 63.1567 42.9293 65.2988 42.9293C67.4409 42.9293 69.0659 41.2389 69.0659 39.1351Z" fill="#353535"/>
        <path d="M80.11 40.0391H77.5812V43.6531H76.6787V34.6191H80.2912C81.7881 34.6191 82.9999 35.8327 82.9999 37.3291C82.9999 38.5553 82.1747 39.6003 81.0517 39.9236L83.2573 43.6531H82.2255L80.11 40.0391ZM77.5812 39.1869H80.29C81.2837 39.1869 82.0962 38.3475 82.0962 37.328C82.0962 36.3084 81.2837 35.469 80.29 35.469H77.5812V39.1858V39.1869Z" fill="#353535"/>
        <path d="M96.2875 37.4575C96.2875 39.0705 95.0745 40.2967 93.4495 40.2967H91.1274V43.6522H90.2249V34.6182H93.4495C95.0745 34.6182 96.2875 35.8317 96.2875 37.4575ZM95.385 37.4575C95.385 36.2959 94.5725 35.4703 93.4495 35.4703H91.1274V39.4458H93.4495C94.5713 39.4458 95.385 38.6063 95.385 37.4586V37.4575Z" fill="#353535"/>
        <path d="M102.159 39.1351C102.159 36.5533 104.197 34.4634 106.828 34.4634C109.46 34.4634 111.498 36.5545 111.498 39.1351C111.498 41.7157 109.46 43.8068 106.828 43.8068C104.197 43.8068 102.159 41.7157 102.159 39.1351ZM110.595 39.1351C110.595 37.0313 108.97 35.3409 106.828 35.3409C104.686 35.3409 103.061 37.0313 103.061 39.1351C103.061 41.2389 104.686 42.9293 106.828 42.9293C108.97 42.9293 110.595 41.2389 110.595 39.1351Z" fill="#353535"/>
        <path d="M121.639 40.0391H119.111V43.6531H118.208V34.6191H121.82C123.317 34.6191 124.529 35.8327 124.529 37.3291C124.529 38.5553 123.704 39.6003 122.581 39.9236L124.787 43.6531H123.755L121.639 40.0391ZM119.111 39.1869H121.819C122.813 39.1869 123.626 38.3475 123.626 37.328C123.626 36.3084 122.813 35.469 121.819 35.469H119.111V39.1858V39.1869Z" fill="#353535"/>
        <path d="M136.411 41.4327H132.128L131.289 43.6531H130.335L133.805 34.6191H134.734L138.205 43.6531H137.25L136.411 41.4327ZM136.089 40.5806L134.27 35.7403L132.451 40.5806H136.089Z" fill="#353535"/>
        <path d="M149.557 35.4703H146.783V43.6533H145.881V35.4703H143.107V34.6182H149.558V35.4703H149.557Z" fill="#353535"/>
        <path d="M156.911 34.6182V43.6522H156.008V34.6182H156.911Z" fill="#353535"/>
        <path d="M163.62 39.1351C163.62 36.5533 165.658 34.4634 168.29 34.4634C170.921 34.4634 172.959 36.5545 172.959 39.1351C172.959 41.7157 170.921 43.8068 168.29 43.8068C165.658 43.8068 163.62 41.7157 163.62 39.1351ZM172.057 39.1351C172.057 37.0313 170.432 35.3409 168.29 35.3409C166.148 35.3409 164.523 37.0313 164.523 39.1351C164.523 41.2389 166.148 42.9293 168.29 42.9293C170.432 42.9293 172.057 41.2389 172.057 39.1351Z" fill="#353535"/>
        <path d="M186.119 34.6182V43.6522H185.344L180.313 36.2959V43.6522H179.411V34.6182H180.185L185.216 41.9744V34.6182H186.119Z" fill="#353535"/>
        </g>
        <defs>
        <clipPath id="clip0_236_774">
        <rect width="188" height="43.9252" fill="white" transform="translate(0 0.0373535)"/>
        </clipPath>
        </defs>
    </symbol>
    <symbol id="mail" width="20" height="20" viewBox="0 0 20 20" fill="none" xmlns="http://www.w3.org/2000/svg">
        <path fill-rule="evenodd" clip-rule="evenodd" d="M6.07356 3.37476L6.09999 3.37476H13.9L13.9264 3.37476C14.534 3.37475 15.0279 3.37474 15.4287 3.40749C15.8425 3.4413 16.2118 3.51312 16.5552 3.68811C17.0962 3.96375 17.536 4.40357 17.8116 4.94453C17.9826 5.28012 18.0551 5.64035 18.0899 6.04274C18.1287 6.15313 18.1349 6.27064 18.1109 6.38185C18.125 6.71999 18.125 7.11418 18.125 7.57331V7.59976V12.3998V12.4262C18.125 13.0338 18.125 13.5277 18.0923 13.9284C18.0585 14.3423 17.9866 14.7115 17.8116 15.055C17.536 15.5959 17.0962 16.0358 16.5552 16.3114C16.2118 16.4864 15.8425 16.5582 15.4287 16.592C15.0279 16.6248 14.5341 16.6248 13.9264 16.6248H13.9H6.09999H6.07354C5.46593 16.6248 4.97205 16.6248 4.5713 16.592C4.15746 16.5582 3.78821 16.4864 3.44477 16.3114C2.9038 16.0358 2.46398 15.5959 2.18835 15.055C2.01336 14.7115 1.94154 14.3423 1.90772 13.9284C1.87498 13.5277 1.87499 13.0338 1.87499 12.4262L1.87499 12.3998V7.59976L1.87499 7.57332C1.87499 7.11419 1.87498 6.71999 1.88911 6.38185C1.86509 6.27064 1.8713 6.15313 1.9101 6.04274C1.94487 5.64035 2.01736 5.28012 2.18835 4.94453C2.46398 4.40357 2.9038 3.96375 3.44477 3.68811C3.78821 3.51312 4.15746 3.4413 4.5713 3.40749C4.97205 3.37474 5.46594 3.37475 6.07356 3.37476ZM3.12502 7.45018C3.125 7.49882 3.12499 7.54866 3.12499 7.59976V12.3998C3.12499 13.0401 3.12548 13.4828 3.15357 13.8267C3.18107 14.1632 3.23186 14.3496 3.30211 14.4875C3.4579 14.7933 3.70649 15.0418 4.01226 15.1976C4.15012 15.2679 4.33655 15.3187 4.67309 15.3462C5.01693 15.3743 5.45962 15.3748 6.09999 15.3748H13.9C14.5404 15.3748 14.9831 15.3743 15.3269 15.3462C15.6634 15.3187 15.8499 15.2679 15.9877 15.1976C16.2935 15.0418 16.5421 14.7933 16.6979 14.4875C16.7681 14.3496 16.8189 14.1632 16.8464 13.8267C16.8745 13.4828 16.875 13.0401 16.875 12.3998V7.59976C16.875 7.54866 16.875 7.49881 16.875 7.45018L11.7347 11.0484C11.7079 11.0672 11.6813 11.0858 11.6551 11.1042C11.2386 11.3964 10.8989 11.6347 10.514 11.7307C10.1765 11.8148 9.82351 11.8148 9.48602 11.7307C9.10106 11.6347 8.76138 11.3964 8.34487 11.1042C8.31865 11.0858 8.29213 11.0672 8.26527 11.0484L3.12502 7.45018ZM16.8234 5.96046L11.0179 10.0243C10.4797 10.4011 10.3418 10.4853 10.2116 10.5178C10.0727 10.5524 9.92732 10.5524 9.78836 10.5178C9.65818 10.4853 9.52033 10.4011 8.9821 10.0243L3.17658 5.96046C3.20584 5.75194 3.24826 5.61771 3.30211 5.51202C3.4579 5.20626 3.70649 4.95766 4.01226 4.80187C4.15012 4.73163 4.33655 4.68083 4.67309 4.65334C5.01693 4.62524 5.45962 4.62476 6.09999 4.62476H13.9C14.5404 4.62476 14.9831 4.62524 15.3269 4.65334C15.6634 4.68083 15.8499 4.73163 15.9877 4.80187C16.2935 4.95767 16.5421 5.20626 16.6979 5.51202C16.7517 5.61771 16.7941 5.75194 16.8234 5.96046Z" fill="#555555"/>
    </symbol>
    <symbol id="phone" width="20" height="20" viewBox="0 0 20 20" fill="none" xmlns="http://www.w3.org/2000/svg">
        <g clip-path="url(#clip0_236_949)">
        <path fill-rule="evenodd" clip-rule="evenodd" d="M4.16667 3.95825C3.8904 3.95825 3.62545 4.068 3.4301 4.26335C3.23875 4.45469 3.12954 4.71281 3.12514 4.98294C3.31806 8.07341 4.63275 10.9874 6.82263 13.1773C9.01252 15.3672 11.9265 16.6819 15.017 16.8748C15.2871 16.8704 15.5452 16.7612 15.7366 16.5698C15.9319 16.3745 16.0417 16.1095 16.0417 15.8333V12.9231L12.7621 11.6112L11.7859 13.2381C11.6186 13.5171 11.2653 13.621 10.9736 13.4771C9.04056 12.5238 7.47611 10.9594 6.5228 9.02637C6.37892 8.73464 6.48286 8.38134 6.76177 8.21399L8.38869 7.23784L7.07685 3.95825H4.16667ZM2.54621 3.37947C2.97598 2.94969 3.55888 2.70825 4.16667 2.70825H7.5C7.75557 2.70825 7.98538 2.86385 8.0803 3.10113L9.74696 7.2678C9.86089 7.55262 9.75127 7.87802 9.48823 8.03585L7.91508 8.97974C8.66174 10.2676 9.73232 11.3382 11.0202 12.0848L11.9641 10.5117C12.1219 10.2486 12.4473 10.139 12.7321 10.253L16.8988 11.9196C17.1361 12.0145 17.2917 12.2444 17.2917 12.4999V15.8333C17.2917 16.441 17.0502 17.0239 16.6205 17.4537C16.1907 17.8835 15.6078 18.1249 15 18.1249C14.9874 18.1249 14.9747 18.1245 14.9621 18.1238C11.5591 17.917 8.34946 16.4719 5.93875 14.0612C3.52804 11.6505 2.08295 8.44082 1.87615 5.03783C1.87538 5.02521 1.875 5.01256 1.875 4.99992C1.875 4.39213 2.11644 3.80924 2.54621 3.37947Z" fill="#555555"/>
        </g>
        <defs>
        <clipPath id="clip0_236_949">
        <rect width="20" height="20" fill="white"/>
        </clipPath>
        </defs>
    </symbol>
    <symbol id="arrow-down" width="20" height="20" viewBox="0 0 20 20" fill="none" xmlns="http://www.w3.org/2000/svg">
       <path fill-rule="evenodd" clip-rule="evenodd" d="M5.05818 7.30781C5.30226 7.06374 5.69799 7.06374 5.94206 7.30781L10.0001 11.3659L14.0582 7.30781C14.3023 7.06374 14.698 7.06374 14.9421 7.30781C15.1861 7.55189 15.1861 7.94762 14.9421 8.1917L10.4421 12.6917C10.198 12.9358 9.80226 12.9358 9.55818 12.6917L5.05818 8.1917C4.8141 7.94762 4.8141 7.55189 5.05818 7.30781Z" fill="#555555"/>
    </symbol>
     <symbol id="at" width="16" height="16" viewBox="0 0 16 16" xmlns="http://www.w3.org/2000/svg">
       <g clip-path="url(#clip0_236_870)">
        <path fill-rule="evenodd" clip-rule="evenodd" d="M5.22278 2.12343C6.54916 1.49662 8.04858 1.33693 9.47722 1.67033C10.9059 2.00374 12.1797 2.81062 13.0916 3.95979C14.0036 5.10895 14.4999 6.53281 14.5 7.99984V7.99987V8.59987C14.5 9.20987 14.2577 9.79488 13.8264 10.2262C13.395 10.6576 12.81 10.8999 12.2 10.8999C11.59 10.8999 11.005 10.6576 10.5737 10.2262C10.4514 10.1039 10.3443 9.96929 10.2536 9.82522C9.7219 10.4808 8.90989 10.8999 8.00001 10.8999C6.39838 10.8999 5.10001 9.6015 5.10001 7.99987C5.10001 6.39825 6.39838 5.09987 8.00001 5.09987C8.72677 5.09987 9.3911 5.36721 9.90001 5.80892V5.59987C9.90001 5.32373 10.1239 5.09987 10.4 5.09987C10.6761 5.09987 10.9 5.32373 10.9 5.59987V7.99987V8.59987C10.9 8.94465 11.037 9.27531 11.2808 9.51911C11.5246 9.76291 11.8552 9.89987 12.2 9.89987C12.5448 9.89987 12.8754 9.76291 13.1192 9.51911C13.363 9.27531 13.5 8.94465 13.5 8.59987V7.9999C13.5 7.99989 13.5 7.99988 13.5 7.99987C13.4999 6.75855 13.0799 5.55376 12.3083 4.5814C11.5367 3.60903 10.4588 2.92628 9.24996 2.64417C8.04111 2.36206 6.77237 2.49718 5.65005 3.02756C4.52772 3.55793 3.61782 4.45238 3.0683 5.56545C2.51877 6.67852 2.36194 7.94476 2.6233 9.15827C2.88466 10.3718 3.54884 11.4612 4.50785 12.2494C5.46686 13.0375 6.66429 13.4781 7.90544 13.4994C9.14659 13.5208 10.3585 13.1216 11.344 12.3669C11.5632 12.199 11.8771 12.2406 12.045 12.4599C12.2129 12.6791 12.1712 12.9929 11.952 13.1608C10.7873 14.0528 9.35506 14.5245 7.88825 14.4993C6.42144 14.4741 5.00629 13.9534 3.87292 13.0219C2.73954 12.0904 1.9546 10.803 1.64572 9.36882C1.33683 7.93467 1.52218 6.43821 2.17162 5.12276C2.82106 3.80731 3.8964 2.75024 5.22278 2.12343ZM9.90001 7.99987C9.90001 6.95053 9.04935 6.09987 8.00001 6.09987C6.95067 6.09987 6.10001 6.95053 6.10001 7.99987C6.10001 9.04921 6.95067 9.89987 8.00001 9.89987C9.04935 9.89987 9.90001 9.04921 9.90001 7.99987Z" fill="#555555"/>
        </g>
        <defs>
        <clipPath id="clip0_236_870">
        <rect width="16" height="16" />
        </clipPath>
        </defs>
    </symbol>
      <symbol id='accordionIcon' width="24" height="24" viewBox="0 0 24 24" fill="none" xmlns="http://www.w3.org/2000/svg">
      <g clip-path="url(#clip0_236_3664)">
      <path fill-rule="evenodd" clip-rule="evenodd" d="M6.06977 8.76947C6.36266 8.47658 6.83753 8.47658 7.13043 8.76947L12.0001 13.6391L16.8698 8.76947C17.1627 8.47658 17.6375 8.47658 17.9304 8.76947C18.2233 9.06237 18.2233 9.53724 17.9304 9.83013L12.5304 15.2301C12.2375 15.523 11.7627 15.523 11.4698 15.2301L6.06977 9.83013C5.77687 9.53724 5.77687 9.06237 6.06977 8.76947Z" fill="#353535"/>
      </g>
      <defs>
      <clipPath id="clip0_236_3664">
      <rect width="24" height="24" fill="white"/>
      </clipPath>
      </defs>
    </symbol>
    <symbol id='logos-1' width="114" height="32" viewBox="0 0 114 32" fill="none" xmlns="http://www.w3.org/2000/svg">
        <path d="M61.5798 20.6825C61.5798 24.147 57.2438 23.9413 57.2438 23.9413H52.9312V17.6546H57.2672C61.708 17.6294 61.5798 20.6825 61.5798 20.6825ZM52.9312 8.08389H56.2152C59.6274 8.26433 59.4993 10.8032 59.4993 10.8032C59.4993 13.9591 55.728 14.0115 55.728 14.0115H52.9312V8.08389ZM60.7841 15.2692C60.7841 15.2692 63.7343 14.0115 63.7091 10.6498C63.7091 10.6498 64.171 5.15889 56.8829 4.49125H48.8261V27.4834H58.0648C58.0648 27.4834 65.7896 27.5087 65.7896 20.9911C65.8131 21.0163 65.9935 16.5774 60.7841 15.2692ZM39.9211 -7.62939e-06H73.8699V31.9999H39.9211V-7.62939e-06Z" fill="#353535"/>
        <path d="M22.4392 20.6825C22.4392 24.147 18.1032 23.9413 18.1032 23.9413H13.7671V17.6546H18.1032C22.5692 17.6294 22.4392 20.6825 22.4392 20.6825ZM13.7671 8.08389H17.0512C20.4634 8.26433 20.3353 10.8032 20.3353 10.8032C20.3353 13.9591 16.564 14.0115 16.564 14.0115H13.7671V8.08389ZM21.6182 15.2692C21.6182 15.2692 24.5685 14.0115 24.5432 10.6498C24.5432 10.6498 25.0052 5.15889 17.717 4.49125H9.68545V27.4834H18.9242C18.9242 27.4834 26.649 27.5087 26.649 20.9911C26.649 21.0163 26.8276 16.5774 21.6182 15.2692ZM0.75708 -7.62939e-06H34.7058V31.9999H0.75708V-7.62939e-06Z" fill="#353535"/>
        <path d="M106.083 6.15855V10.4188C106.083 10.4188 101.926 7.87818 97.3588 7.82766C97.3588 7.82766 88.813 7.64721 88.4286 16.0126C88.4286 16.0126 88.1201 23.7103 97.2559 24.147C97.2559 24.147 101.105 24.609 106.289 21.2978V25.7115C106.289 25.7115 99.3094 29.8689 91.2255 26.6606C91.2255 26.6606 84.4246 24.1723 84.1683 16.0379C84.1683 16.0379 83.8868 7.67247 92.9451 4.87559C92.9451 4.87559 95.3577 3.95172 99.719 4.36313C99.719 4.33787 102.31 4.5941 106.083 6.15855ZM79.0618 31.9999H113.011V-7.62939e-06H79.0618V31.9999Z" fill="#353535"/>
    </symbol>
    <symbol id='logos-2' width="148" height="32" viewBox="0 0 148 32" fill="none" xmlns="http://www.w3.org/2000/svg">
        <path d="M136.958 25.4961C136.958 23.4222 138.642 21.7396 140.715 21.7396C142.789 21.7396 144.47 23.4222 144.47 25.4961C144.47 27.57 142.789 29.2515 140.715 29.2515C138.642 29.2515 136.958 27.57 136.958 25.4961Z" fill="#353535"/>
        <path d="M17.1571 15.5442C17.1571 13.1648 16.6974 11.3996 15.7778 10.2496C14.8571 9.10068 13.4625 8.52675 11.5875 8.52675H9.593V23.0769H11.119C13.2016 23.0769 14.7278 22.4594 15.6995 21.2203C16.6701 19.9834 17.1571 18.0909 17.1571 15.5442ZM24.2702 15.2964C24.2702 19.6312 23.1049 22.9714 20.7745 25.3159C18.444 27.6616 15.168 28.8345 10.9451 28.8345H2.73962V2.85938H11.5179C15.5897 2.85938 18.7331 3.92568 20.9483 6.05721C23.1625 8.18982 24.2702 11.2681 24.2702 15.2964Z" fill="#353535"/>
        <path d="M47.0001 28.839H53.5295V2.75519H47.0001V28.839Z" fill="#353535"/>
        <path d="M62.6982 19.1027C62.6982 20.7657 62.9156 22.0342 63.3493 22.9059C63.7841 23.7787 64.5123 24.2146 65.5362 24.2146C66.5492 24.2146 67.2656 23.7787 67.6829 22.9059C68.1003 22.0342 68.308 20.7657 68.308 19.1027C68.308 17.4483 68.097 16.2005 67.6742 15.3581C67.2503 14.5135 66.5276 14.0906 65.5027 14.0906C64.5005 14.0906 63.7841 14.5113 63.3493 15.3483C62.9156 16.1863 62.6982 17.4374 62.6982 19.1027ZM74.9537 19.1027C74.9537 22.2712 74.1232 24.7429 72.4579 26.5146C70.7938 28.2875 68.4645 29.1744 65.47 29.1744C62.5982 29.1744 60.3122 28.2679 58.6155 26.4548C56.9166 24.6418 56.0677 22.1918 56.0677 19.1027C56.0677 15.944 56.8994 13.4896 58.5646 11.7396C60.2297 9.98956 62.5645 9.11456 65.571 9.11456C67.4287 9.11456 69.0722 9.52002 70.4961 10.3298C71.9211 11.1396 73.0211 12.2994 73.7939 13.8103C74.5678 15.319 74.9537 17.0842 74.9537 19.1027Z" fill="#353535"/>
        <path d="M77.547 28.8334H84.0775V18.8508V9.45831H77.547V28.8334Z" fill="#353535"/>
        <path d="M77.547 7.11631H84.0775V2.75H77.547V7.11631Z" fill="#353535"/>
        <path d="M97.3079 23.8938C98.1894 23.8938 99.2393 23.6699 100.464 23.2254V28.1004C99.5839 28.4873 98.747 28.7645 97.9513 28.9286C97.1557 29.0949 96.2219 29.1775 95.1535 29.1775C92.961 29.1775 91.3806 28.6265 90.4099 27.5265C89.4436 26.4265 88.9589 24.7373 88.9589 22.458V14.471H86.672V9.46226H88.9589V4.51441L95.5394 3.36981V9.46226H99.7058V14.471H95.5394V22.0123C95.5394 23.2667 96.1296 23.8938 97.3079 23.8938Z" fill="#353535"/>
        <path d="M112.423 23.8938C113.305 23.8938 114.355 23.6699 115.58 23.2254V28.1004C114.701 28.4873 113.863 28.7645 113.067 28.9286C112.27 29.0949 111.34 29.1775 110.269 29.1775C108.077 29.1775 106.496 28.6265 105.528 27.5265C104.559 26.4265 104.075 24.7373 104.075 22.458V14.471H101.786V9.46226H104.075V4.43942L110.654 3.36981V9.46226H114.822V14.471H110.654V22.0123C110.654 23.2667 111.244 23.8938 112.423 23.8938Z" fill="#353535"/>
        <path d="M123.824 16.7418C123.913 15.6809 124.217 14.9037 124.734 14.407C125.254 13.9113 125.895 13.6635 126.663 13.6635C127.499 13.6635 128.165 13.9417 128.658 14.5026C129.155 15.0602 129.414 15.807 129.434 16.7418H123.824ZM133.033 11.3983C131.481 9.87655 129.279 9.11456 126.43 9.11456C123.435 9.11456 121.131 9.98956 119.516 11.7396C117.902 13.4896 117.094 16.0005 117.094 19.2722C117.094 22.4407 117.967 24.8842 119.708 26.5994C121.45 28.3146 123.897 29.1733 127.048 29.1733C128.561 29.1733 129.864 29.0701 130.955 28.8647C132.04 28.6614 133.09 28.294 134.108 27.7635L133.105 23.3972C132.365 23.6994 131.66 23.932 130.995 24.0853C130.034 24.3081 128.98 24.4201 127.832 24.4201C126.573 24.4201 125.58 24.1124 124.852 23.4972C124.123 22.8809 123.735 22.0309 123.691 20.9483H135.362V17.9733C135.362 15.1113 134.586 12.919 133.033 11.3983Z" fill="#353535"/>
        <path d="M32.9337 16.7418C33.0228 15.6809 33.3261 14.9037 33.8434 14.407C34.3619 13.9113 35.0044 13.6635 35.773 13.6635C36.6077 13.6635 37.2729 13.9417 37.7675 14.5026C38.2642 15.0602 38.5218 15.807 38.5447 16.7418H32.9337ZM42.1436 11.3983C40.5904 9.87655 38.3891 9.11456 35.5392 9.11456C32.5435 9.11456 30.2402 9.98956 28.626 11.7396C27.0119 13.4896 26.2032 16.0005 26.2032 19.2722C26.2032 22.4407 27.075 24.8842 28.8185 26.5994C30.5598 28.3146 33.0065 29.1733 36.1576 29.1733C37.6707 29.1733 38.9728 29.0701 40.0641 28.8647C41.1489 28.6614 42.1991 28.294 43.2186 27.7635L42.2143 23.3972C41.474 23.6994 40.7696 23.932 40.1055 24.0853C39.1425 24.3081 38.0892 24.4201 36.9412 24.4201C35.6837 24.4201 34.6893 24.1124 33.961 23.4972C33.2316 22.8809 32.8447 22.0309 32.8002 20.9483H44.4718V17.9733C44.4718 15.1113 43.6958 12.919 42.1436 11.3983Z" fill="#353535"/>
    </symbol>
    <symbol id='logos-3' width="150" height="32" viewBox="0 0 150 32" fill="none" xmlns="http://www.w3.org/2000/svg">
        <g clip-path="url(#clip0_6_6883)">
        <path d="M19.4756 12.0169C19.2309 11.2368 18.5161 9.48331 18.3214 8.18869C17.8917 5.32134 19.3908 3.43295 20.7675 3.00048C22.3125 2.5694 22.916 3.34534 23.5139 5.14891C24.2871 7.89528 24.3733 11.4941 24.1133 16.6461C23.7754 23.6838 20.2544 32.1829 11.5019 32.0063C3.94681 31.8409 0.603809 26.9475 0.256159 19.4815C0.0920683 15.962 0.343767 12.4438 1.80112 7.46837C2.57429 4.80404 3.26403 3.85568 5.66281 3.34534C7.54846 3.00048 7.37881 4.97231 6.9519 7.29734C6.01185 12.4438 5.5752 14.9288 5.92285 20.7678C6.25938 26.9475 9.09759 29.3517 12.1875 29.3517C16.8224 29.4407 18.8805 25.5791 19.7426 19.9946C20.4226 15.5337 19.9095 13.388 19.4756 12.0169ZM118.297 18.1118C120.102 18.1118 120.62 20.2463 120.188 21.5395C119.757 22.8244 118.215 24.2901 115.814 24.717C115.296 23.4265 115.038 18.1118 118.297 18.1118ZM84.7476 21.0209C84.7476 19.5677 83.9703 18.3649 83.0344 18.3649C82.2529 18.3649 80.4576 19.2201 80.4576 21.9678C80.4576 24.1204 81.2224 25.1411 81.5729 25.5791C84.0551 24.8032 84.7476 22.7382 84.7476 21.0209ZM58.0509 3.51638C57.9299 2.13972 56.8508 1.20248 55.3907 1.20248C53.7623 1.20248 52.2284 2.91149 52.3911 5.05853C52.4954 6.47412 53.3298 7.63802 54.9693 7.63802C56.8508 7.63941 58.2233 5.49377 58.0509 3.51638ZM72.0083 8.55719C71.8595 6.15707 71.2783 5.07382 69.9892 5.16281C68.2801 5.26572 67.4903 10.643 67.8393 16.2957C68.0618 19.9835 68.6111 20.5522 69.1228 20.5161C70.0684 20.4591 72.3365 13.8706 72.0083 8.55719ZM128.941 17.5917C127.877 22.004 124.652 28.4952 119.841 28.4952C118.727 28.4952 116.752 28.0627 116.752 26.9475C116.752 25.7446 124.31 25.5791 124.31 19.825C124.31 17.6821 122.337 14.6743 119.417 14.6743C115.555 14.6743 111.788 18.8836 111.788 24.7184C111.788 29.9497 115.038 31.667 118.299 31.667C123.965 31.667 127.399 27.0295 129.2 23.1707C130.062 25.746 130.568 31.667 132.722 31.667C133.577 31.667 134.182 31.2374 135.212 28.9235C137.781 23.1693 140.273 16.5613 143.708 16.5613C144.991 16.5613 144.222 18.8835 147.311 18.8835C148.767 18.8835 149.793 17.6821 149.793 16.3027C149.793 14.3267 147.993 12.7873 145.25 12.7873C137.18 12.7873 135.47 24.8894 134.181 24.8894C132.034 24.8894 132.721 15.1902 131.173 15.1902C129.799 15.1888 129.124 16.8255 128.941 17.5917ZM60.2842 27.8889C61.5705 27.8889 63.7829 27.4717 65.524 24.6836C64.5283 22.4726 63.8177 18.0047 63.719 16.3778C63.2072 8.05798 66.4126 0.231854 69.921 0.0149254C72.4937 -0.140818 74.5517 2.29407 74.7881 6.23912C75.4209 16.6058 71.968 20.9333 70.2395 24.6669C70.5315 26.1145 72.9873 28.5786 75.3041 28.5786C76.1593 28.5786 77.1939 28.1489 77.4539 27.8013C77.2815 27.2047 77.1063 26.4329 77.1063 25.3135C77.1063 19.3063 80.9694 14.2404 84.3179 14.2404C86.9781 14.2404 88.5231 17.7586 88.5231 20.0808C88.5231 22.823 86.2036 25.0591 82.773 27.2047C83.3765 27.8013 84.4862 28.2351 85.4346 28.2351C90.3309 28.2351 92.8924 22.3113 94.7891 16.902C95.1312 15.8702 95.7361 14.4143 96.9348 14.4143C98.9943 14.4143 99.8565 27.9751 103.28 27.9751C104.744 27.9751 105.943 24.9687 105.943 22.6576C105.943 20.9388 105.342 20.7664 105.342 18.2773C105.342 15.5337 106.803 13.2184 108.781 13.2184C109.981 13.2184 110.415 14.4143 110.415 15.8702C110.415 21.3643 106.462 31.5794 100.634 31.5794C96.2493 31.5794 96.5914 24.0259 95.0478 24.0259C93.3234 24.0259 90.9205 31.6643 82.4323 31.6643C81.0528 31.6643 79.5968 30.9787 78.3981 29.6021C76.3414 30.9787 74.6199 31.5794 72.6452 31.5794C69.4733 31.5794 68.0966 28.3172 66.813 28.3172C65.2653 28.3172 63.5535 31.6643 58.3985 31.6643C54.2796 31.6643 53.5926 26.1771 52.1367 26.1771C50.8462 26.1771 48.8729 31.6643 46.7286 31.6643C43.1186 31.6643 42.3538 22.1403 39.1721 22.1403C36.6843 22.1403 28.8205 31.8131 26.6859 31.592C25.8279 31.503 25.4663 30.8619 25.5567 30.0025C25.6777 28.815 26.6998 25.6362 27.1142 24.1329C27.8081 21.5229 28.445 18.6625 28.801 17.7502C29.1542 16.8297 30.1068 16.1733 30.8716 16.2443C31.2568 16.2804 31.3722 16.9993 31.4918 17.5931C31.9257 19.7151 32.5306 21.8788 33.2134 21.8788C34.419 21.8788 38.4003 14.2391 40.7171 14.2391C43.5539 14.2391 43.8932 26.2577 47.7535 26.2577C49.044 26.2577 49.991 24.7156 50.8462 22.8216C50.9338 19.6414 51.7918 15.1026 54.3658 15.1026C56.1694 15.1026 57.0288 19.1325 55.7369 22.6562C55.7341 26.8585 58.4778 27.8889 60.2842 27.8889Z" fill="#353535"/>
        </g>
        <defs>
        <clipPath id="clip0_6_6883">
        <rect width="149.579" height="31.9999" fill="white" transform="translate(0.210449 6.10352e-05)"/>
        </clipPath>
        </defs>
    </symbol>
    <symbol id='vk' width="24" height="25" viewBox="0 0 24 25" xmlns="http://www.w3.org/2000/svg">
      <path fill-rule="evenodd" clip-rule="evenodd" d="M1.25 6.19586C1.25 5.78165 1.58579 5.44586 2 5.44586H6C6.41421 5.44586 6.75 5.78165 6.75 6.19586V11.1959C6.75 12.0578 7.09241 12.8845 7.7019 13.494C8.13134 13.9234 8.66857 14.2202 9.25 14.3582V6.19586C9.25 5.78165 9.58579 5.44586 10 5.44586H14C14.4142 5.44586 14.75 5.78165 14.75 6.19586V9.75712C15.344 9.5432 15.8794 9.18228 16.3032 8.70236C16.9133 8.01147 17.25 7.12153 17.25 6.19984C17.25 5.78563 17.5858 5.44986 18 5.44986H22C22.2247 5.44986 22.4375 5.55059 22.58 5.72434C22.7224 5.89808 22.7795 6.12654 22.7355 6.34687L22.3935 8.05787L22.3934 8.05796C22.1662 9.19404 21.6825 10.2632 20.9792 11.1839C20.568 11.7222 20.0882 12.2015 19.5534 12.6103C20.0591 12.9282 20.5176 13.3203 20.9125 13.7756C21.628 14.6004 22.1086 15.6024 22.3039 16.6767L22.3039 16.6768L22.7379 19.0658C22.7777 19.2846 22.7183 19.5097 22.5758 19.6805C22.4333 19.8512 22.2224 19.9499 22 19.9499H18C17.5858 19.9499 17.25 19.6141 17.25 19.1999C17.25 18.2782 16.9133 17.3883 16.3032 16.6974C15.8866 16.2255 15.3621 15.8687 14.78 15.6536V19.2039C14.78 19.4369 14.6717 19.6566 14.4869 19.7986C14.325 19.923 14.1204 19.9753 13.9207 19.9459H10C7.67936 19.9459 5.45376 19.024 3.81282 17.383C2.17187 15.7421 1.25 13.5165 1.25 11.1959V6.19586ZM13.28 18.4459V14.7039C13.28 14.4888 13.3723 14.284 13.5336 14.1417C13.6948 13.9993 13.9094 13.933 14.1229 13.9596C15.4003 14.119 16.5755 14.7395 17.4276 15.7045C18.1127 16.4804 18.551 17.436 18.6965 18.4499H21.1015L20.8281 16.945C20.6809 16.1353 20.3187 15.3801 19.7794 14.7585C19.2402 14.1368 18.5437 13.6715 17.7629 13.4114C17.4751 13.3155 17.2734 13.0557 17.2519 12.7531C17.2304 12.4505 17.3933 12.1647 17.6646 12.029C18.4966 11.6131 19.2226 11.0126 19.7872 10.2734C20.3518 9.53426 20.7401 8.67591 20.9225 7.76386C20.9226 7.76383 20.9226 7.76379 20.9226 7.76376L21.0853 6.94986H18.6965C18.551 7.96373 18.1127 8.91933 17.4276 9.6952C16.5755 10.6602 15.4003 11.2807 14.1229 11.4401C14.0921 11.4439 14.061 11.4459 14.03 11.4459H14C13.5858 11.4459 13.25 11.1101 13.25 10.6959V6.94586H10.75V15.1959C10.75 15.3948 10.671 15.5855 10.5303 15.7262C10.3897 15.8668 10.1989 15.9459 10 15.9459C8.74022 15.9459 7.53204 15.4454 6.64124 14.5546C5.75044 13.6638 5.25 12.4556 5.25 11.1959V6.94586H2.75V11.1959C2.75 13.1187 3.51384 14.9627 4.87348 16.3224C6.23311 17.682 8.07718 18.4459 10 18.4459H13.28Z"/>
    </symbol>
    <symbol id='inst' width="24" height="25" viewBox="0 0 24 25" xmlns="http://www.w3.org/2000/svg">
      <path fill-rule="evenodd" clip-rule="evenodd" d="M8 4.94586C7.13805 4.94586 6.3114 5.28827 5.7019 5.89776C5.09241 6.50726 4.75 7.33391 4.75 8.19586V16.1959C4.75 17.0578 5.09241 17.8845 5.7019 18.494C6.3114 19.1035 7.13805 19.4459 8 19.4459H16C16.862 19.4459 17.6886 19.1035 18.2981 18.494C18.9076 17.8845 19.25 17.0578 19.25 16.1959V8.19586C19.25 7.33391 18.9076 6.50726 18.2981 5.89776C17.6886 5.28827 16.862 4.94586 16 4.94586H8ZM4.64124 4.8371C5.53204 3.94631 6.74022 3.44586 8 3.44586H16C17.2598 3.44586 18.468 3.94631 19.3588 4.8371C20.2496 5.7279 20.75 6.93608 20.75 8.19586V16.1959C20.75 17.4556 20.2496 18.6638 19.3588 19.5546C18.468 20.4454 17.2598 20.9459 16 20.9459H8C6.74022 20.9459 5.53204 20.4454 4.64124 19.5546C3.75044 18.6638 3.25 17.4556 3.25 16.1959V8.19586C3.25 6.93608 3.75044 5.7279 4.64124 4.8371ZM16.5 6.94586C16.9142 6.94586 17.25 7.28165 17.25 7.69586V7.70586C17.25 8.12008 16.9142 8.45586 16.5 8.45586C16.0858 8.45586 15.75 8.12008 15.75 7.70586V7.69586C15.75 7.28165 16.0858 6.94586 16.5 6.94586ZM9.34835 9.54421C10.0516 8.84095 11.0054 8.44586 12 8.44586C12.9946 8.44586 13.9484 8.84095 14.6517 9.54421C15.3549 10.2475 15.75 11.2013 15.75 12.1959C15.75 13.1904 15.3549 14.1443 14.6517 14.8475C13.9484 15.5508 12.9946 15.9459 12 15.9459C11.0054 15.9459 10.0516 15.5508 9.34835 14.8475C8.64509 14.1443 8.25 13.1904 8.25 12.1959C8.25 11.2013 8.64509 10.2475 9.34835 9.54421ZM12 9.94586C11.4033 9.94586 10.831 10.1829 10.409 10.6049C9.98705 11.0268 9.75 11.5991 9.75 12.1959C9.75 12.7926 9.98705 13.3649 10.409 13.7869C10.831 14.2088 11.4033 14.4459 12 14.4459C12.5967 14.4459 13.169 14.2088 13.591 13.7869C14.0129 13.3649 14.25 12.7926 14.25 12.1959C14.25 11.5991 14.0129 11.0268 13.591 10.6049C13.169 10.1829 12.5967 9.94586 12 9.94586Z"/>
    </symbol>
    <symbol id='tg' width="24" height="25" viewBox="0 0 24 25" xmlns="http://www.w3.org/2000/svg">
      <path fill-rule="evenodd" clip-rule="evenodd" d="M21.4959 3.63323C21.7062 3.8186 21.7956 4.1058 21.7276 4.37778L17.7276 20.3778C17.6621 20.6399 17.4606 20.8465 17.2002 20.9187C16.9398 20.9908 16.6607 20.9173 16.4697 20.7262L12.0812 16.3377L9.6 19.6459C9.43263 19.869 9.15522 19.9809 8.87987 19.9362C8.60451 19.8915 8.37671 19.6977 8.28849 19.433L6.38673 13.7278L2.66459 11.8667C2.39926 11.734 2.23706 11.4574 2.25081 11.1611C2.26456 10.8648 2.45169 10.6044 2.72817 10.4969L20.7282 3.49687C20.9895 3.39526 21.2856 3.44786 21.4959 3.63323ZM12.5395 14.6747C12.5339 14.669 12.5283 14.6633 12.5225 14.6577L12.0607 14.1959L15.5303 10.7262C15.8232 10.4333 15.8232 9.95844 15.5303 9.66554C15.2374 9.37265 14.7626 9.37265 14.4697 9.66554L10.4697 13.6655C10.1768 13.9584 10.1768 14.4333 10.4697 14.7262L11.0097 15.2663L9.25886 17.6007L7.71152 12.9587C7.64862 12.77 7.51333 12.614 7.33541 12.5251L4.84865 11.2817L19.9208 5.42027L16.5937 18.7289L12.5395 14.6747Z"/>
    </symbol>
    <symbol id='eye' width="24" height="24" viewBox="0 0 24 24" fill="none" xmlns="http://www.w3.org/2000/svg">
      <path fill-rule="evenodd" clip-rule="evenodd" d="M3.67183 4.49823C3.94905 4.19046 4.42328 4.16571 4.73104 4.44293L7.8768 7.27654C7.92474 7.31031 7.96916 7.35006 8.00885 7.39549L10.6627 9.78602C10.6675 9.79021 10.6722 9.79447 10.6769 9.7988L14.3261 13.0859C14.3308 13.09 14.3355 13.0943 14.3402 13.0986L16.9879 15.4836C17.0435 15.5213 17.0947 15.567 17.1394 15.6201L20.2732 18.4429C20.581 18.7202 20.6058 19.1944 20.3285 19.5022C20.0513 19.8099 19.5771 19.8347 19.2693 19.5574L16.4631 17.0296C15.2087 17.7102 13.7127 18.1946 12.0002 18.1946C7.19199 18.1946 4.10288 14.396 3.11393 12.9854C3.10702 12.9756 3.09989 12.9655 3.09259 12.9551C2.99236 12.8131 2.8596 12.625 2.79187 12.3588C2.73627 12.1403 2.73629 11.8599 2.79192 11.6413L3.51874 11.8263L2.79192 11.6413C2.85969 11.3751 2.99282 11.1865 3.09332 11.0442C3.10067 11.0338 3.10786 11.0236 3.11482 11.0137C3.63582 10.2708 4.68786 8.93825 6.22466 7.80716L3.72712 5.55745C3.41936 5.28022 3.3946 4.80599 3.67183 4.49823ZM7.366 8.83525C5.87698 9.86451 4.84468 11.1595 4.34292 11.8749C4.3123 11.9186 4.2907 11.9494 4.27263 11.9762C4.26628 11.9857 4.26105 11.9936 4.25675 12.0002C4.26096 12.0067 4.26605 12.0144 4.27223 12.0235C4.29018 12.0502 4.31164 12.0808 4.34214 12.1243C5.29667 13.4858 7.99248 16.6946 12.0002 16.6946C13.213 16.6946 14.3046 16.4026 15.268 15.9532L13.7784 14.6114C13.2596 14.9126 12.6483 15.0835 12.0002 15.0835C10.231 15.0835 8.65981 13.7749 8.65981 12.0002C8.65981 11.4183 8.83394 10.8799 9.12874 10.4231L7.366 8.83525ZM10.2729 11.4538C10.1988 11.6265 10.1598 11.8109 10.1598 12.0002C10.1598 12.8028 10.9081 13.5835 12.0002 13.5835C12.1952 13.5835 12.3816 13.5575 12.5556 13.5099L10.2729 11.4538ZM12.0002 7.30575C11.6611 7.30575 11.3321 7.32854 11.0134 7.37098C10.6028 7.42567 10.2257 7.13715 10.171 6.72656C10.1163 6.31597 10.4048 5.93879 10.8154 5.88411C11.1985 5.83309 11.5936 5.80575 12.0002 5.80575C16.8084 5.80575 19.8975 9.60441 20.8864 11.0149C20.8933 11.0248 20.9005 11.0349 20.9078 11.0452C21.008 11.1873 21.1408 11.3754 21.2085 11.6416C21.2641 11.8601 21.2641 12.1406 21.2084 12.3591C21.1406 12.6254 21.0073 12.8142 20.9066 12.9568C20.8993 12.9672 20.892 12.9774 20.885 12.9874C20.6105 13.3788 20.1945 13.9254 19.6437 14.5178C19.3617 14.8212 18.8872 14.8385 18.5838 14.5565C18.2804 14.2745 18.2631 13.8 18.5451 13.4966C19.0403 12.9638 19.4137 12.4729 19.657 12.1261C19.6877 12.0823 19.7094 12.0514 19.7275 12.0245C19.734 12.0149 19.7393 12.0069 19.7436 12.0002C19.7394 11.9937 19.7343 11.986 19.7281 11.9768C19.7102 11.9502 19.6887 11.9196 19.6582 11.8761C18.7037 10.5146 16.0079 7.30575 12.0002 7.30575Z" fill="#B3B3B3"/>
    </symbol>
    <symbol id='info' width="16" height="16" viewBox="0 0 16 16" fill="none" xmlns="http://www.w3.org/2000/svg">
      <g clip-path="url(#clip0_236_2962)">
      <path fill-rule="evenodd" clip-rule="evenodd" d="M5.45877 2.09995L5.47992 2.09995H10.5199L10.5411 2.09995C11.0272 2.09994 11.4223 2.09994 11.7429 2.12613C12.0739 2.15318 12.3693 2.21064 12.6441 2.35063C13.0769 2.57114 13.4287 2.92299 13.6492 3.35577C13.7892 3.63052 13.8467 3.92592 13.8737 4.25699C13.8999 4.57759 13.8999 4.9727 13.8999 5.45879V5.47995V10.5199V10.5411C13.8999 11.0272 13.8999 11.4223 13.8737 11.7429C13.8467 12.074 13.7892 12.3694 13.6492 12.6441C13.4287 13.0769 13.0769 13.4288 12.6441 13.6493C12.3693 13.7893 12.0739 13.8467 11.7429 13.8738C11.4223 13.9 11.0272 13.9 10.5411 13.8999H10.5199H5.47991H5.45876C4.97267 13.9 4.57756 13.9 4.25696 13.8738C3.92589 13.8467 3.63049 13.7893 3.35574 13.6493C2.92296 13.4288 2.57111 13.0769 2.3506 12.6441C2.21061 12.3694 2.15315 12.074 2.1261 11.7429C2.0999 11.4223 2.09991 11.0272 2.09991 10.5411L2.09991 10.5199V5.47995L2.09991 5.4588C2.09991 4.9727 2.0999 4.57759 2.1261 4.25699C2.15315 3.92592 2.21061 3.63052 2.3506 3.35577C2.57111 2.92299 2.92296 2.57114 3.35574 2.35063C3.63049 2.21064 3.92589 2.15318 4.25696 2.12613C4.57756 2.09994 4.97267 2.09994 5.45877 2.09995ZM4.33839 3.12281C4.06916 3.14481 3.92001 3.18544 3.80973 3.24164C3.56512 3.36627 3.36624 3.56515 3.24161 3.80976C3.18541 3.92004 3.14478 4.06919 3.12278 4.33843C3.1003 4.6135 3.09991 4.96765 3.09991 5.47995V10.5199C3.09991 11.0322 3.1003 11.3864 3.12278 11.6615C3.14478 11.9307 3.18541 12.0798 3.24161 12.1901C3.36624 12.4347 3.56512 12.6336 3.80973 12.7583C3.92001 12.8144 4.06916 12.8551 4.33839 12.8771C4.61346 12.8996 4.96762 12.8999 5.47991 12.8999H10.5199C11.0322 12.8999 11.3864 12.8996 11.6614 12.8771C11.9307 12.8551 12.0798 12.8144 12.1901 12.7583C12.4347 12.6336 12.6336 12.4347 12.7582 12.1901C12.8144 12.0798 12.8551 11.9307 12.8771 11.6615C12.8995 11.3864 12.8999 11.0322 12.8999 10.5199V5.47995C12.8999 4.96765 12.8995 4.6135 12.8771 4.33843C12.8551 4.06919 12.8144 3.92004 12.7582 3.80976C12.6336 3.56515 12.4347 3.36627 12.1901 3.24164C12.0798 3.18544 11.9307 3.14481 11.6614 3.12281C11.3864 3.10033 11.0322 3.09995 10.5199 3.09995H5.47992C4.96762 3.09995 4.61346 3.10033 4.33839 3.12281ZM7.49992 5.59995C7.49992 5.3238 7.72377 5.09995 7.99992 5.09995H8.00592C8.28206 5.09995 8.50592 5.3238 8.50592 5.59995C8.50592 5.87609 8.28206 6.09995 8.00592 6.09995H7.99992C7.72377 6.09995 7.49992 5.87609 7.49992 5.59995ZM7.99992 7.49995C8.27606 7.49995 8.49992 7.7238 8.49992 7.99995V10.3999C8.49992 10.6761 8.27606 10.8999 7.99992 10.8999C7.72377 10.8999 7.49992 10.6761 7.49992 10.3999V7.99995C7.49992 7.7238 7.72377 7.49995 7.99992 7.49995Z" fill="#8E8E8E"/>
      </g>
      <defs>
      <clipPath id="clip0_236_2962">
      <rect width="16" height="16" fill="white"/>
      </clipPath>
      </defs>
    </symbol>
    <symbol id='error' width="16" height="16" viewBox="0 0 16 16" fill="none" xmlns="http://www.w3.org/2000/svg">
      <g clip-path="url(#clip0_236_2596)">
      <path fill-rule="evenodd" clip-rule="evenodd" d="M8 2.5C4.96243 2.5 2.5 4.96243 2.5 8C2.5 11.0376 4.96243 13.5 8 13.5C11.0376 13.5 13.5 11.0376 13.5 8C13.5 4.96243 11.0376 2.5 8 2.5ZM1.5 8C1.5 4.41015 4.41015 1.5 8 1.5C11.5899 1.5 14.5 4.41015 14.5 8C14.5 11.5899 11.5899 14.5 8 14.5C4.41015 14.5 1.5 11.5899 1.5 8ZM8 5.1C8.27614 5.1 8.5 5.32386 8.5 5.6V8C8.5 8.27614 8.27614 8.5 8 8.5C7.72386 8.5 7.5 8.27614 7.5 8V5.6C7.5 5.32386 7.72386 5.1 8 5.1ZM7.5 10.4C7.5 10.1239 7.72386 9.9 8 9.9H8.006C8.28214 9.9 8.506 10.1239 8.506 10.4C8.506 10.6761 8.28214 10.9 8.006 10.9H8C7.72386 10.9 7.5 10.6761 7.5 10.4Z" fill="#F0483D"/>
      </g>
      <defs>
      <clipPath id="clip0_236_2596">
      <rect width="16" height="16" fill="white"/>
      </clipPath>
      </defs>
    </symbol>
    <symbol id='close'  width="24" height="24" viewBox="0 0 24 24" fill="none" xmlns="http://www.w3.org/2000/svg">
      <path fill-rule="evenodd" clip-rule="evenodd" d="M7.64645 8.49703C7.84171 8.30177 8.15829 8.30177 8.35355 8.49703L12 12.1435L15.6464 8.49703C15.8417 8.30177 16.1583 8.30177 16.3536 8.49703C16.5488 8.69229 16.5488 9.00888 16.3536 9.20414L12.7071 12.8506L16.3536 16.497C16.5488 16.6923 16.5488 17.0089 16.3536 17.2041C16.1583 17.3994 15.8417 17.3994 15.6464 17.2041L12 13.5577L8.35355 17.2041C8.15829 17.3994 7.84171 17.3994 7.64645 17.2041C7.45118 17.0089 7.45118 16.6923 7.64645 16.497L11.2929 12.8506L7.64645 9.20414C7.45118 9.00888 7.45118 8.69229 7.64645 8.49703Z" fill="#0F0F0F"/>
    </symbol>
</svg>