<svg width="24" height="25" viewBox="0 0 24 25" fill="none" xmlns="http://www.w3.org/2000/svg">
<path fill-rule="evenodd" clip-rule="evenodd" d="M21.4959 3.63323C21.7062 3.8186 21.7956 4.1058 21.7276 4.37778L17.7276 20.3778C17.6621 20.6399 17.4606 20.8465 17.2002 20.9187C16.9398 20.9908 16.6607 20.9173 16.4697 20.7262L12.0812 16.3377L9.6 19.6459C9.43263 19.869 9.15522 19.9809 8.87987 19.9362C8.60451 19.8915 8.37671 19.6977 8.28849 19.433L6.38673 13.7278L2.66459 11.8667C2.39926 11.734 2.23706 11.4574 2.25081 11.1611C2.26456 10.8648 2.45169 10.6044 2.72817 10.4969L20.7282 3.49687C20.9895 3.39526 21.2856 3.44786 21.4959 3.63323ZM12.5395 14.6747C12.5339 14.669 12.5283 14.6633 12.5225 14.6577L12.0607 14.1959L15.5303 10.7262C15.8232 10.4333 15.8232 9.95844 15.5303 9.66554C15.2374 9.37265 14.7626 9.37265 14.4697 9.66554L10.4697 13.6655C10.1768 13.9584 10.1768 14.4333 10.4697 14.7262L11.0097 15.2663L9.25886 17.6007L7.71152 12.9587C7.64862 12.77 7.51333 12.614 7.33541 12.5251L4.84865 11.2817L19.9208 5.42027L16.5937 18.7289L12.5395 14.6747Z" fill="#353535"/>
</svg>
