<svg width="24" height="25" viewBox="0 0 24 25" fill="none" xmlns="http://www.w3.org/2000/svg">
<path fill-rule="evenodd" clip-rule="evenodd" d="M1.25 6.19586C1.25 5.78165 1.58579 5.44586 2 5.44586H6C6.41421 5.44586 6.75 5.78165 6.75 6.19586V11.1959C6.75 12.0578 7.09241 12.8845 7.7019 13.494C8.13134 13.9234 8.66857 14.2202 9.25 14.3582V6.19586C9.25 5.78165 9.58579 5.44586 10 5.44586H14C14.4142 5.44586 14.75 5.78165 14.75 6.19586V9.75712C15.344 9.5432 15.8794 9.18228 16.3032 8.70236C16.9133 8.01147 17.25 7.12153 17.25 6.19984C17.25 5.78563 17.5858 5.44986 18 5.44986H22C22.2247 5.44986 22.4375 5.55059 22.58 5.72434C22.7224 5.89808 22.7795 6.12654 22.7355 6.34687L22.3935 8.05787L22.3934 8.05796C22.1662 9.19404 21.6825 10.2632 20.9792 11.1839C20.568 11.7222 20.0882 12.2015 19.5534 12.6103C20.0591 12.9282 20.5176 13.3203 20.9125 13.7756C21.628 14.6004 22.1086 15.6024 22.3039 16.6767L22.3039 16.6768L22.7379 19.0658C22.7777 19.2846 22.7183 19.5097 22.5758 19.6805C22.4333 19.8512 22.2224 19.9499 22 19.9499H18C17.5858 19.9499 17.25 19.6141 17.25 19.1999C17.25 18.2782 16.9133 17.3883 16.3032 16.6974C15.8866 16.2255 15.3621 15.8687 14.78 15.6536V19.2039C14.78 19.4369 14.6717 19.6566 14.4869 19.7986C14.325 19.923 14.1204 19.9753 13.9207 19.9459H10C7.67936 19.9459 5.45376 19.024 3.81282 17.383C2.17187 15.7421 1.25 13.5165 1.25 11.1959V6.19586ZM13.28 18.4459V14.7039C13.28 14.4888 13.3723 14.284 13.5336 14.1417C13.6948 13.9993 13.9094 13.933 14.1229 13.9596C15.4003 14.119 16.5755 14.7395 17.4276 15.7045C18.1127 16.4804 18.551 17.436 18.6965 18.4499H21.1015L20.8281 16.945C20.6809 16.1353 20.3187 15.3801 19.7794 14.7585C19.2402 14.1368 18.5437 13.6715 17.7629 13.4114C17.4751 13.3155 17.2734 13.0557 17.2519 12.7531C17.2304 12.4505 17.3933 12.1647 17.6646 12.029C18.4966 11.6131 19.2226 11.0126 19.7872 10.2734C20.3518 9.53426 20.7401 8.67591 20.9225 7.76386C20.9226 7.76383 20.9226 7.76379 20.9226 7.76376L21.0853 6.94986H18.6965C18.551 7.96373 18.1127 8.91933 17.4276 9.6952C16.5755 10.6602 15.4003 11.2807 14.1229 11.4401C14.0921 11.4439 14.061 11.4459 14.03 11.4459H14C13.5858 11.4459 13.25 11.1101 13.25 10.6959V6.94586H10.75V15.1959C10.75 15.3948 10.671 15.5855 10.5303 15.7262C10.3897 15.8668 10.1989 15.9459 10 15.9459C8.74022 15.9459 7.53204 15.4454 6.64124 14.5546C5.75044 13.6638 5.25 12.4556 5.25 11.1959V6.94586H2.75V11.1959C2.75 13.1187 3.51384 14.9627 4.87348 16.3224C6.23311 17.682 8.07718 18.4459 10 18.4459H13.28Z" fill="#353535"/>
</svg>
