<svg width="42" height="42" viewBox="0 0 42 42" fill="none" xmlns="http://www.w3.org/2000/svg">
<path d="M38.5 30.625H26.25" stroke="#5EBBC5" stroke-width="2.625" stroke-miterlimit="10" stroke-linecap="round" stroke-linejoin="round"/>
<path d="M8.75 30.625H3.5" stroke="#5EBBC5" stroke-width="2.625" stroke-miterlimit="10" stroke-linecap="round" stroke-linejoin="round"/>
<path d="M38.5 11.375H33.25" stroke="#5EBBC5" stroke-width="2.625" stroke-miterlimit="10" stroke-linecap="round" stroke-linejoin="round"/>
<path d="M15.75 11.375H3.5" stroke="#5EBBC5" stroke-width="2.625" stroke-miterlimit="10" stroke-linecap="round" stroke-linejoin="round"/>
<path d="M12.25 25.375H22.75C24.675 25.375 26.25 26.25 26.25 28.875V32.375C26.25 35 24.675 35.875 22.75 35.875H12.25C10.325 35.875 8.75 35 8.75 32.375V28.875C8.75 26.25 10.325 25.375 12.25 25.375Z" stroke="#5EBBC5" stroke-width="2.625" stroke-miterlimit="10" stroke-linecap="round" stroke-linejoin="round"/>
<path d="M19.25 6.125H29.75C31.675 6.125 33.25 7 33.25 9.625V13.125C33.25 15.75 31.675 16.625 29.75 16.625H19.25C17.325 16.625 15.75 15.75 15.75 13.125V9.625C15.75 7 17.325 6.125 19.25 6.125Z" stroke="#5EBBC5" stroke-width="2.625" stroke-miterlimit="10" stroke-linecap="round" stroke-linejoin="round"/>
</svg>
