<svg width="42" height="42" viewBox="0 0 42 42" fill="none" xmlns="http://www.w3.org/2000/svg">
<path d="M26.25 3.5V21C26.25 22.925 24.675 24.5 22.75 24.5H3.5V10.5C3.5 6.6325 6.6325 3.5 10.5 3.5H26.25Z" stroke="#5EBBC5" stroke-width="2.625" stroke-linecap="round" stroke-linejoin="round"/>
<path d="M38.5 24.5V29.75C38.5 32.655 36.155 35 33.25 35H31.5C31.5 33.075 29.925 31.5 28 31.5C26.075 31.5 24.5 33.075 24.5 35H17.5C17.5 33.075 15.925 31.5 14 31.5C12.075 31.5 10.5 33.075 10.5 35H8.75C5.845 35 3.5 32.655 3.5 29.75V24.5H22.75C24.675 24.5 26.25 22.925 26.25 21V8.75H29.47C30.73 8.75 31.885 9.43252 32.515 10.5175L35.5075 15.75H33.25C32.2875 15.75 31.5 16.5375 31.5 17.5V22.75C31.5 23.7125 32.2875 24.5 33.25 24.5H38.5Z" stroke="#5EBBC5" stroke-width="2.625" stroke-linecap="round" stroke-linejoin="round"/>
<path d="M14 38.5C15.933 38.5 17.5 36.933 17.5 35C17.5 33.067 15.933 31.5 14 31.5C12.067 31.5 10.5 33.067 10.5 35C10.5 36.933 12.067 38.5 14 38.5Z" stroke="#5EBBC5" stroke-width="2.625" stroke-linecap="round" stroke-linejoin="round"/>
<path d="M28 38.5C29.933 38.5 31.5 36.933 31.5 35C31.5 33.067 29.933 31.5 28 31.5C26.067 31.5 24.5 33.067 24.5 35C24.5 36.933 26.067 38.5 28 38.5Z" stroke="#5EBBC5" stroke-width="2.625" stroke-linecap="round" stroke-linejoin="round"/>
<path d="M38.5 21V24.5H33.25C32.2875 24.5 31.5 23.7125 31.5 22.75V17.5C31.5 16.5375 32.2875 15.75 33.25 15.75H35.5075L38.5 21Z" stroke="#5EBBC5" stroke-width="2.625" stroke-linecap="round" stroke-linejoin="round"/>
</svg>
