<svg width="42" height="42" viewBox="0 0 42 42" fill="none" xmlns="http://www.w3.org/2000/svg">
<path d="M22.7667 5.11006L33.0917 9.69506C36.0667 11.0076 36.0667 13.1776 33.0917 14.4901L22.7667 19.0751C21.5942 19.6001 19.6692 19.6001 18.4967 19.0751L8.17168 14.4901C5.19668 13.1776 5.19668 11.0076 8.17168 9.69506L18.4967 5.11006C19.6692 4.58506 21.5942 4.58506 22.7667 5.11006Z" stroke="#5EBBC5" stroke-width="2.625" stroke-linecap="round" stroke-linejoin="round"/>
<path d="M5.25 19.25C5.25 20.72 6.3525 22.4175 7.7 23.0125L19.5825 28.2975C20.4925 28.7 21.525 28.7 22.4175 28.2975L34.3 23.0125C35.6475 22.4175 36.75 20.72 36.75 19.25" stroke="#5EBBC5" stroke-width="2.625" stroke-linecap="round" stroke-linejoin="round"/>
<path d="M5.25 28C5.25 29.6275 6.2125 31.0975 7.7 31.7625L19.5825 37.0475C20.4925 37.45 21.525 37.45 22.4175 37.0475L34.3 31.7625C35.7875 31.0975 36.75 29.6275 36.75 28" stroke="#5EBBC5" stroke-width="2.625" stroke-linecap="round" stroke-linejoin="round"/>
</svg>
