<svg width="277" height="46" viewBox="0 0 277 46" fill="none" xmlns="http://www.w3.org/2000/svg">
<g clip-path="url(#clip0_4025_7123)">
<path d="M32.6055 45.1407H12.5739C5.63059 45.1407 0 39.515 0 32.5776V12.5631C0 5.62578 5.63059 0 12.5739 0H32.6055C39.5488 0 45.1793 5.62578 45.1793 12.5631V32.5776C45.1793 39.515 39.5488 45.1407 32.6055 45.1407Z" fill="#5FBBC5"/>
<path d="M24.7004 24.8815L32.2062 24.8431C34.4854 24.8335 36.678 24.0024 38.385 22.5082L36.25 20.2646L24.9504 20.3175L24.6956 24.8767L24.7004 24.8815Z" fill="#CFCFCE"/>
<path d="M6.79419 22.6379L9.00123 24.9584L20.1326 24.9055L20.3826 20.3463L12.8768 20.3799C10.6409 20.3944 8.48673 21.1919 6.79419 22.6379Z" fill="#CFCFCE"/>
<path d="M6.62581 28.9455L15.4155 38.1793C16.1752 38.9768 17.1561 39.4284 18.1707 39.5437C18.5554 39.5869 18.9448 39.5773 19.3295 39.5197C20.1325 39.3996 20.9114 39.0585 21.5702 38.4916L21.5894 38.4723C21.6375 38.4243 21.6856 38.3762 21.7289 38.3282C23.2579 36.7092 24.1667 34.6001 24.2869 32.3661L26.393 9.90626L38.385 22.5078C38.4187 22.479 38.4475 22.455 38.4812 22.4213C39.0967 21.8064 39.4958 21.0473 39.6737 20.2498C39.741 19.9375 39.7795 19.6157 39.7843 19.2986C39.7891 18.184 39.3804 17.0646 38.5533 16.195L29.7636 6.96125C28.9318 6.08688 27.8355 5.62567 26.7199 5.57763C26.4026 5.56322 26.0756 5.58243 25.7631 5.63528C24.9553 5.7746 24.1811 6.13012 23.532 6.71624C23.5032 6.74506 23.4695 6.77869 23.4406 6.80752C21.8635 8.44096 20.9211 10.5837 20.7912 12.8561L18.9641 35.4312L6.78449 22.6327C6.7364 22.676 6.68351 22.7192 6.63543 22.7672L6.61619 22.7865C6.01996 23.4158 5.63529 24.1749 5.47661 24.9724C5.42372 25.227 5.39487 25.4912 5.38525 25.7507C5.38525 25.8756 5.38525 26.0005 5.39006 26.1254C5.45257 27.1439 5.85647 28.148 6.61619 28.9455" fill="white"/>
<path d="M170.793 34.8885V14.7827C170.793 12.7361 172.457 11.0739 174.505 11.0739H180.583C187.944 11.0739 193.445 15.9742 193.445 22.9836C193.445 29.993 187.944 34.8933 180.583 34.8933H170.793V34.8885ZM175.616 30.5695H180.583C185.444 30.5695 188.622 27.3699 188.622 22.9836C188.622 18.5973 185.444 15.3977 180.583 15.3977H175.616V30.5743V30.5695Z" fill="#03616B"/>
<path d="M89.3777 22.5368C89.3777 15.4938 95.0227 10.1851 102.384 10.1851C109.746 10.1851 115.425 15.4938 115.425 22.5368C115.425 29.5798 109.78 34.8885 102.384 34.8885C94.989 34.8885 89.3777 29.5798 89.3777 22.5368ZM110.602 22.5368C110.602 18.1457 107.279 14.5089 102.384 14.5089C97.4894 14.5089 94.2005 18.1505 94.2005 22.5368C94.2005 26.9231 97.523 30.5647 102.384 30.5647C107.246 30.5647 110.602 26.9231 110.602 22.5368Z" fill="#03616B"/>
<path d="M141.231 34.8885L150.963 13.3367C151.584 11.9578 152.959 11.0739 154.469 11.0739C155.978 11.0739 157.349 11.9578 157.974 13.3319L167.74 34.8885H165.186C163.499 34.8885 161.97 33.9037 161.268 32.3711L160.167 29.9546H148.804L147.703 32.3711C147.001 33.9037 145.472 34.8885 143.784 34.8885H141.231ZM150.41 25.8709H158.522L154.522 16.8197H154.449L150.41 25.8709Z" fill="#03616B"/>
<path d="M215.569 34.9507V19.1976H215.496L202.336 33.8217C201.769 34.5327 200.908 34.9507 199.994 34.9507C198.345 34.9507 197.003 33.6151 197.003 31.9625V15.162C197.003 12.5196 199.148 10.377 201.793 10.377V26.8555H201.865L215.068 12.2506C215.631 11.5444 216.487 11.136 217.386 11.136C219.026 11.136 220.353 12.462 220.353 14.1002V30.1705C220.353 32.8128 218.208 34.9555 215.564 34.9555" fill="#03616B"/>
<path d="M222.166 34.8885L231.898 13.3367C232.518 11.9578 233.893 11.0739 235.403 11.0739C236.913 11.0739 238.283 11.9578 238.908 13.3319L248.674 34.8885H246.121C244.433 34.8885 242.904 33.9037 242.202 32.3711L241.101 29.9546H229.739L228.638 32.3711C227.936 33.9037 226.406 34.8885 224.719 34.8885H222.166ZM231.349 25.8709H239.461L235.461 16.8197H235.389L231.349 25.8709Z" fill="#03616B"/>
<path d="M263.777 16.8247H263.705L256.959 32.3761C256.257 33.9087 254.728 34.8935 253.04 34.8935H250.487L260.219 13.3417C260.839 11.9628 262.214 11.0789 263.724 11.0789C265.234 11.0789 266.604 11.9628 267.23 13.3369L276.995 34.8935H274.442C272.754 34.8935 271.225 33.9087 270.523 32.3761L263.777 16.8247Z" fill="#03616B"/>
<path d="M80.0737 20.0146H68.4567V15.095C68.4567 12.4527 66.3122 10.3148 63.6724 10.3148V30.1083C63.6724 32.7507 65.8169 34.8886 68.4567 34.8886V24.569H80.0737V30.1083C80.0737 32.7507 82.2182 34.8886 84.858 34.8886V15.095C84.858 12.4527 82.7135 10.3148 80.0737 10.3148V20.0146Z" fill="#03616B"/>
<path d="M136.702 21.8639C137.332 20.879 137.726 19.7356 137.788 18.4913C137.99 14.4029 134.716 11.0111 130.667 11.0111H118.291L119.622 13.0097C120.714 14.6431 122.546 15.6232 124.513 15.6232H130.667C132.139 15.6232 133.317 16.8915 133.168 18.3856C133.038 19.6924 131.865 20.6484 130.552 20.6484H122.161C120.406 20.6484 118.983 22.0705 118.983 23.824V34.8978H132.509C136.399 34.8978 139.726 31.8712 139.837 27.9845C139.909 25.4431 138.644 23.1899 136.697 21.8687M132.716 30.281H123.599V25.2557H132.716C134.1 25.2557 135.23 26.3799 135.23 27.7683C135.23 29.1568 134.1 30.281 132.716 30.281Z" fill="#03616B"/>
</g>
<defs>
<clipPath id="clip0_4025_7123">
<rect width="277" height="45.1407" fill="white"/>
</clipPath>
</defs>
</svg>
