<svg width="207" height="34" viewBox="0 0 207 34" fill="none" xmlns="http://www.w3.org/2000/svg">
<g clip-path="url(#clip0_4001_3183)">
<path d="M24.3658 33.7333H9.39635C4.2077 33.7333 0 29.5292 0 24.345V9.38832C0 4.2041 4.2077 0 9.39635 0H24.3658C29.5545 0 33.7622 4.2041 33.7622 9.38832V24.345C33.7622 29.5292 29.5545 33.7333 24.3658 33.7333Z" fill="#5FBBC5"/>
<path d="M18.4584 18.5937L24.0675 18.565C25.7707 18.5578 27.4092 17.9367 28.6848 16.8202L27.0894 15.1436L18.6453 15.183L18.4548 18.5901L18.4584 18.5937Z" fill="#CFCFCE"/>
<path d="M5.07727 16.9171L6.72657 18.6512L15.0449 18.6117L15.2318 15.2046L9.62273 15.2297C7.95187 15.2405 6.34209 15.8365 5.07727 16.9171Z" fill="#CFCFCE"/>
<path d="M4.95147 21.6306L11.5199 28.531C12.0877 29.1269 12.8207 29.4644 13.5789 29.5506C13.8663 29.5829 14.1574 29.5757 14.4448 29.5326C15.0449 29.4429 15.627 29.188 16.1193 28.7643L16.1337 28.75C16.1696 28.7141 16.2055 28.6782 16.2379 28.6423C17.3805 27.4324 18.0597 25.8563 18.1495 24.1869L19.7233 7.40277L28.6849 16.8198C28.7101 16.7983 28.7316 16.7803 28.7568 16.7552C29.2167 16.2956 29.5149 15.7284 29.6479 15.1324C29.6982 14.8991 29.7269 14.6585 29.7305 14.4216C29.7341 13.5886 29.4287 12.7521 28.8107 12.1023L22.2422 5.20198C21.6206 4.54857 20.8013 4.20391 19.9677 4.16801C19.7305 4.15724 19.4862 4.1716 19.2526 4.21109C18.6489 4.31521 18.0704 4.58088 17.5853 5.01889C17.5638 5.04043 17.5386 5.06556 17.5171 5.0871C16.3385 6.30776 15.6342 7.90898 15.5372 9.60714L14.1718 26.4774L5.07005 16.9132C5.03412 16.9455 4.99459 16.9778 4.95866 17.0137L4.94429 17.028C4.49872 17.4984 4.21126 18.0656 4.09269 18.6616C4.05316 18.8518 4.0316 19.0493 4.02441 19.2432C4.02441 19.3365 4.02441 19.4299 4.02801 19.5232C4.07472 20.2843 4.37655 21.0347 4.94429 21.6306" fill="white"/>
<path d="M127.632 26.0719V11.047C127.632 9.51759 128.876 8.27539 130.406 8.27539H134.948C140.449 8.27539 144.56 11.9374 144.56 17.1754C144.56 22.4135 140.449 26.0755 134.948 26.0755H127.632V26.0719ZM131.236 22.8443H134.948C138.581 22.8443 140.956 20.4533 140.956 17.1754C140.956 13.8976 138.581 11.5066 134.948 11.5066H131.236V22.8479V22.8443Z" fill="white"/>
<path d="M66.7913 16.8417C66.7913 11.5785 71.0097 7.61133 76.511 7.61133C82.0123 7.61133 86.2559 11.5785 86.2559 16.8417C86.2559 22.1049 82.0374 26.072 76.511 26.072C70.9846 26.072 66.7913 22.1049 66.7913 16.8417ZM82.6519 16.8417C82.6519 13.5603 80.1689 10.8425 76.511 10.8425C72.8531 10.8425 70.3953 13.5638 70.3953 16.8417C70.3953 20.1195 72.8782 22.8409 76.511 22.8409C80.1438 22.8409 82.6519 20.1195 82.6519 16.8417Z" fill="white"/>
<path d="M105.541 26.0719L112.814 9.96637C113.277 8.93598 114.305 8.27539 115.433 8.27539C116.562 8.27539 117.586 8.93598 118.053 9.96278L125.351 26.0719H123.443C122.181 26.0719 121.039 25.3359 120.514 24.1907L119.691 22.3848H111.2L110.378 24.1907C109.853 25.3359 108.71 26.0719 107.449 26.0719H105.541ZM112.401 19.3331H118.462L115.473 12.5692H115.419L112.401 19.3331Z" fill="white"/>
<path d="M161.093 26.1187V14.3465H161.039L151.204 25.275C150.78 25.8063 150.137 26.1187 149.454 26.1187C148.222 26.1187 147.219 25.1206 147.219 23.8856V11.3307C147.219 9.3561 148.822 7.75488 150.798 7.75488V20.0692H150.852L160.719 9.15505C161.139 8.6273 161.779 8.32213 162.451 8.32213C163.676 8.32213 164.668 9.31302 164.668 10.5373V22.5464C164.668 24.521 163.065 26.1222 161.089 26.1222" fill="white"/>
<path d="M166.023 26.0719L173.295 9.96637C173.759 8.93598 174.787 8.27539 175.915 8.27539C177.043 8.27539 178.067 8.93598 178.534 9.96278L185.832 26.0719H183.924C182.663 26.0719 181.52 25.3359 180.996 24.1907L180.173 22.3848H171.682L170.859 24.1907C170.334 25.3359 169.192 26.0719 167.931 26.0719H166.023ZM172.886 19.3331H178.948L175.958 12.5692H175.904L172.886 19.3331Z" fill="white"/>
<path d="M197.119 12.5732H197.065L192.023 24.1946C191.499 25.3398 190.356 26.0758 189.095 26.0758H187.187L194.46 9.97027C194.923 8.93989 195.951 8.2793 197.079 8.2793C198.207 8.2793 199.231 8.93989 199.699 9.96668L206.996 26.0758H205.088C203.827 26.0758 202.685 25.3398 202.16 24.1946L197.119 12.5732Z" fill="white"/>
<path d="M59.8385 14.9566H51.1572V11.2802C51.1572 9.30564 49.5546 7.70801 47.5819 7.70801V22.4995C47.5819 24.4741 49.1845 26.0718 51.1572 26.0718V18.3601H59.8385V22.4995C59.8385 24.4741 61.4411 26.0718 63.4138 26.0718V11.2802C63.4138 9.30564 61.8112 7.70801 59.8385 7.70801V14.9566Z" fill="white"/>
<path d="M102.156 16.3387C102.627 15.6027 102.922 14.7483 102.968 13.8184C103.119 10.7632 100.672 8.22852 97.6466 8.22852H88.3976L89.3929 9.72203C90.2086 10.9427 91.5776 11.6751 93.0473 11.6751H97.6466C98.7461 11.6751 99.6265 12.6229 99.5151 13.7394C99.4181 14.716 98.5413 15.4304 97.5604 15.4304H91.2902C89.9786 15.4304 88.915 16.4931 88.915 17.8035V26.0789H99.0228C101.93 26.0789 104.416 23.8171 104.499 20.9126C104.553 19.0134 103.608 17.3296 102.153 16.3423M99.1773 22.6287H92.3645V18.8734H99.1773C100.212 18.8734 101.057 19.7135 101.057 20.7511C101.057 21.7886 100.212 22.6287 99.1773 22.6287Z" fill="white"/>
</g>
<defs>
<clipPath id="clip0_4001_3183">
<rect width="207" height="33.7333" fill="white"/>
</clipPath>
</defs>
</svg>
