<svg width="27" height="26" viewBox="0 0 27 26" fill="none" xmlns="http://www.w3.org/2000/svg">
<path d="M21.2188 22.0999L14.7459 15.627C14.2042 16.0242 13.6102 16.3357 12.964 16.5614C12.3177 16.7871 11.6301 16.8999 10.901 16.8999C9.09478 16.8999 7.55975 16.268 6.29586 15.0041C5.03197 13.7402 4.40002 12.2055 4.40002 10.3999C4.40002 8.59435 5.03197 7.05962 6.29586 5.79574C7.55975 4.53185 9.09447 3.8999 10.9 3.8999C12.7056 3.8999 14.2403 4.53185 15.5042 5.79574C16.7681 7.05962 17.4 8.59466 17.4 10.4008C17.4 11.13 17.2872 11.8176 17.0615 12.4639C16.8358 13.1101 16.5243 13.7041 16.1271 14.2457L22.6 20.7187L21.2188 22.0999ZM10.9 14.9499C12.1639 14.9499 13.2382 14.5075 14.1229 13.6228C15.0077 12.7381 15.45 11.6638 15.45 10.3999C15.45 9.13601 15.0077 8.06171 14.1229 7.17699C13.2382 6.29226 12.1639 5.8499 10.9 5.8499C9.63614 5.8499 8.56183 6.29226 7.67711 7.17699C6.79239 8.06171 6.35002 9.13601 6.35002 10.3999C6.35002 11.6638 6.79239 12.7381 7.67711 13.6228C8.56183 14.5075 9.63614 14.9499 10.9 14.9499Z" fill="white"/>
</svg>
